<mxfile host="app.diagrams.net" modified="2023-08-29T11:26:25.179Z" agent="Mozilla/5.0 (Windows NT 10.0; Win64; x64) AppleWebKit/537.36 (KHTML, like Gecko) Chrome/116.0.0.0 Safari/537.36" etag="9nSTrFMeKrMFA2s01_HG" version="21.6.9" type="device">
  <diagram name="Página-1" id="5X2hlnucxUbDPLqyYhQw">
    <mxGraphModel dx="744" dy="573" grid="1" gridSize="10" guides="1" tooltips="1" connect="1" arrows="1" fold="1" page="1" pageScale="1" pageWidth="827" pageHeight="1169" math="0" shadow="0">
      <root>
        <mxCell id="0" />
        <mxCell id="1" parent="0" />
        <mxCell id="OVjZ6hHooiTvuWRuSOld-1" value="Raposa" style="swimlane;fontStyle=1;align=center;verticalAlign=top;childLayout=stackLayout;horizontal=1;startSize=26;horizontalStack=0;resizeParent=1;resizeParentMax=0;resizeLast=0;collapsible=1;marginBottom=0;whiteSpace=wrap;html=1;" vertex="1" parent="1">
          <mxGeometry x="70" y="100" width="160" height="270" as="geometry" />
        </mxCell>
        <mxCell id="OVjZ6hHooiTvuWRuSOld-2" value="+ Nome: string&lt;br&gt;+ Pelagem: string&lt;br&gt;+ Tamaho : float&lt;br&gt;+ Localização : string&lt;br&gt;+ Tipo de cauda : string&lt;br&gt;+ Dieta : string&lt;br&gt;+ Cor dos olhos : string&lt;br&gt;+ Orelhas : string&lt;br&gt;+ ExpectativaDeVida : int&lt;br&gt;+ Peso : float" style="text;strokeColor=none;fillColor=none;align=left;verticalAlign=top;spacingLeft=4;spacingRight=4;overflow=hidden;rotatable=0;points=[[0,0.5],[1,0.5]];portConstraint=eastwest;whiteSpace=wrap;html=1;" vertex="1" parent="OVjZ6hHooiTvuWRuSOld-1">
          <mxGeometry y="26" width="160" height="154" as="geometry" />
        </mxCell>
        <mxCell id="OVjZ6hHooiTvuWRuSOld-3" value="" style="line;strokeWidth=1;fillColor=none;align=left;verticalAlign=middle;spacingTop=-1;spacingLeft=3;spacingRight=3;rotatable=0;labelPosition=right;points=[];portConstraint=eastwest;strokeColor=inherit;" vertex="1" parent="OVjZ6hHooiTvuWRuSOld-1">
          <mxGeometry y="180" width="160" height="8" as="geometry" />
        </mxCell>
        <mxCell id="OVjZ6hHooiTvuWRuSOld-4" value="+ Comer() : void&lt;br&gt;+ Dormir() : void&lt;br&gt;+ Procriar() :void&lt;br&gt;+ Correr() : void&lt;br&gt;+ FazerSom() : void" style="text;strokeColor=none;fillColor=none;align=left;verticalAlign=top;spacingLeft=4;spacingRight=4;overflow=hidden;rotatable=0;points=[[0,0.5],[1,0.5]];portConstraint=eastwest;whiteSpace=wrap;html=1;" vertex="1" parent="OVjZ6hHooiTvuWRuSOld-1">
          <mxGeometry y="188" width="160" height="82" as="geometry" />
        </mxCell>
      </root>
    </mxGraphModel>
  </diagram>
</mxfile>
